# xmcd CD database file
#
# Track frame offsets:
#	150
#	22812
#	54856
#	80053
#	103489
#	127210
#	163652
#	195276
#	210839
#	242503
#	261830
#	281201
#	308379
#	324051
#
# Disc length: 4584 seconds
#
# Revision: 0
# Processed by: cddbd v1.4PL0 Copyright (c) Steve Scherf et al.
# Submitted via: CDex 1.50Beta7
#
DISCID=b311e60e
DTITLE=Luciano Milanese - Made in Italy
DYEAR=2002
DGENRE=Jazz
TTITLE0=Song for Larry
TTITLE1=Lucky serenade
TTITLE2=Bio
TTITLE3=Blues for Pippi
TTITLE4=Twilight
TTITLE5=Lucky's mood
TTITLE6=Morning walk
TTITLE7=Sweet and slowly
TTITLE8=Bluevelvet
TTITLE9=For lovers
TTITLE10=Swing connection
TTITLE11=Yellow balls
TTITLE12=Boppish
TTITLE13=Blues for Al
EXTD=YEAR: 2002
EXTT0=
EXTT1=
EXTT2=
EXTT3=
EXTT4=
EXTT5=
EXTT6=
EXTT7=
EXTT8=
EXTT9=
EXTT10=
EXTT11=
EXTT12=
EXTT13=
PLAYORDER=
